<mxfile host="app.diagrams.net" modified="2024-02-19T14:32:02.173Z" agent="Mozilla/5.0 (Windows NT 10.0; Win64; x64; rv:122.0) Gecko/20100101 Firefox/122.0" etag="3FpmqlH-uA-p2KHkwBz4" version="23.1.5" type="github">
  <diagram name="Seite-1" id="dMgD5sMNgH4sBFSDKNPC">
    <mxGraphModel dx="1434" dy="874" grid="1" gridSize="10" guides="1" tooltips="1" connect="1" arrows="1" fold="1" page="1" pageScale="1" pageWidth="1169" pageHeight="827" math="0" shadow="0">
      <root>
        <mxCell id="0" />
        <mxCell id="1" parent="0" />
        <mxCell id="tQu8rQZYgwd-GXm8KlZN-6" style="edgeStyle=orthogonalEdgeStyle;rounded=0;orthogonalLoop=1;jettySize=auto;html=1;exitX=0.5;exitY=1;exitDx=0;exitDy=0;entryX=0.5;entryY=0;entryDx=0;entryDy=0;" edge="1" parent="1" source="WYcQuzejLf0naWVC59Ej-3" target="WYcQuzejLf0naWVC59Ej-4">
          <mxGeometry relative="1" as="geometry" />
        </mxCell>
        <mxCell id="WYcQuzejLf0naWVC59Ej-3" value="Audiometrie" style="rounded=1;whiteSpace=wrap;html=1;fontStyle=1" parent="1" vertex="1">
          <mxGeometry x="180" y="179" width="240" height="60" as="geometry" />
        </mxCell>
        <mxCell id="tQu8rQZYgwd-GXm8KlZN-5" style="edgeStyle=orthogonalEdgeStyle;rounded=0;orthogonalLoop=1;jettySize=auto;html=1;exitX=0.5;exitY=1;exitDx=0;exitDy=0;entryX=0.5;entryY=0;entryDx=0;entryDy=0;" edge="1" parent="1" source="WYcQuzejLf0naWVC59Ej-4" target="WYcQuzejLf0naWVC59Ej-6">
          <mxGeometry relative="1" as="geometry" />
        </mxCell>
        <mxCell id="WYcQuzejLf0naWVC59Ej-4" value="&lt;b&gt;HpTF &amp;amp; HRTF&lt;/b&gt;" style="rounded=1;whiteSpace=wrap;html=1;" parent="1" vertex="1">
          <mxGeometry x="180" y="299" width="240" height="60" as="geometry" />
        </mxCell>
        <mxCell id="tQu8rQZYgwd-GXm8KlZN-3" style="edgeStyle=orthogonalEdgeStyle;rounded=0;orthogonalLoop=1;jettySize=auto;html=1;exitX=0.75;exitY=1;exitDx=0;exitDy=0;entryX=0.5;entryY=0;entryDx=0;entryDy=0;" edge="1" parent="1" source="WYcQuzejLf0naWVC59Ej-6" target="WYcQuzejLf0naWVC59Ej-8">
          <mxGeometry relative="1" as="geometry" />
        </mxCell>
        <mxCell id="tQu8rQZYgwd-GXm8KlZN-4" style="edgeStyle=orthogonalEdgeStyle;rounded=0;orthogonalLoop=1;jettySize=auto;html=1;exitX=0.25;exitY=1;exitDx=0;exitDy=0;" edge="1" parent="1" source="WYcQuzejLf0naWVC59Ej-6" target="WYcQuzejLf0naWVC59Ej-7">
          <mxGeometry relative="1" as="geometry" />
        </mxCell>
        <mxCell id="WYcQuzejLf0naWVC59Ej-6" value="&lt;b&gt;Training&lt;/b&gt;" style="rounded=1;whiteSpace=wrap;html=1;" parent="1" vertex="1">
          <mxGeometry x="180" y="419" width="240" height="60" as="geometry" />
        </mxCell>
        <mxCell id="tQu8rQZYgwd-GXm8KlZN-7" style="edgeStyle=orthogonalEdgeStyle;rounded=0;orthogonalLoop=1;jettySize=auto;html=1;exitX=1;exitY=0.25;exitDx=0;exitDy=0;entryX=0;entryY=0.25;entryDx=0;entryDy=0;" edge="1" parent="1" source="WYcQuzejLf0naWVC59Ej-7" target="WYcQuzejLf0naWVC59Ej-8">
          <mxGeometry relative="1" as="geometry" />
        </mxCell>
        <mxCell id="WYcQuzejLf0naWVC59Ej-7" value="&lt;div&gt;&lt;b&gt;Ambisonics&lt;/b&gt;&lt;/div&gt;&lt;div&gt;&lt;br&gt;&lt;/div&gt;&lt;div align=&quot;left&quot;&gt;Optitrack Calibration&lt;/div&gt;&lt;div align=&quot;left&quot;&gt;&amp;nbsp; - itaToolbox Head-Marker-Calib&lt;br&gt;&amp;nbsp; - Referenz-Richtungen(0°, 90°, 180°)&lt;/div&gt;&lt;div align=&quot;left&quot;&gt;&lt;br&gt;&lt;/div&gt;&lt;div align=&quot;left&quot;&gt;Versuchsdurchlauf&lt;br&gt;&lt;/div&gt;" style="rounded=1;whiteSpace=wrap;html=1;" parent="1" vertex="1">
          <mxGeometry x="40" y="539" width="240" height="110" as="geometry" />
        </mxCell>
        <mxCell id="tQu8rQZYgwd-GXm8KlZN-8" style="edgeStyle=orthogonalEdgeStyle;rounded=0;orthogonalLoop=1;jettySize=auto;html=1;exitX=0;exitY=0.75;exitDx=0;exitDy=0;entryX=1;entryY=0.75;entryDx=0;entryDy=0;" edge="1" parent="1" source="WYcQuzejLf0naWVC59Ej-8" target="WYcQuzejLf0naWVC59Ej-7">
          <mxGeometry relative="1" as="geometry" />
        </mxCell>
        <mxCell id="WYcQuzejLf0naWVC59Ej-8" value="&lt;div&gt;&lt;b&gt;Binaural&lt;/b&gt;&lt;/div&gt;&lt;div&gt;&lt;br&gt;&lt;/div&gt;&lt;div align=&quot;left&quot;&gt;Optitrack Calibration&lt;/div&gt;&lt;div align=&quot;left&quot;&gt;&amp;nbsp; - itaToolbox Head-Marker-Calib&lt;br&gt;&amp;nbsp; - Referenz-Richtungen(0°, 90°, 180°)&lt;/div&gt;&lt;div align=&quot;left&quot;&gt;&lt;br&gt;&lt;/div&gt;&lt;div align=&quot;left&quot;&gt;Versuchsdurchlauf&lt;br&gt;&lt;/div&gt;" style="rounded=1;whiteSpace=wrap;html=1;" parent="1" vertex="1">
          <mxGeometry x="320" y="539" width="240" height="110" as="geometry" />
        </mxCell>
        <mxCell id="tQu8rQZYgwd-GXm8KlZN-25" style="edgeStyle=orthogonalEdgeStyle;rounded=0;orthogonalLoop=1;jettySize=auto;html=1;exitX=0.5;exitY=1;exitDx=0;exitDy=0;" edge="1" parent="1" source="tQu8rQZYgwd-GXm8KlZN-10" target="tQu8rQZYgwd-GXm8KlZN-11">
          <mxGeometry relative="1" as="geometry" />
        </mxCell>
        <mxCell id="tQu8rQZYgwd-GXm8KlZN-10" value="&lt;div&gt;Optitrack Caibration&lt;/div&gt;&lt;div align=&quot;right&quot;&gt;&lt;br&gt;&lt;/div&gt;&lt;div align=&quot;left&quot;&gt;&lt;div&gt;&lt;div&gt;&lt;span style=&quot;font-weight: normal;&quot;&gt;&amp;nbsp; - itaToolbox Head-Marker-Calib&lt;/span&gt;&lt;br&gt;&lt;/div&gt;&lt;div&gt;&lt;span style=&quot;font-weight: normal;&quot;&gt;&amp;nbsp; - Referenz-Richtungen(0°, 90°, 180°)&lt;/span&gt;&lt;br&gt;&lt;/div&gt;&lt;/div&gt;&lt;/div&gt;" style="rounded=1;whiteSpace=wrap;html=1;fontStyle=1" vertex="1" parent="1">
          <mxGeometry x="780" y="154" width="240" height="100" as="geometry" />
        </mxCell>
        <mxCell id="tQu8rQZYgwd-GXm8KlZN-16" style="edgeStyle=orthogonalEdgeStyle;rounded=0;orthogonalLoop=1;jettySize=auto;html=1;exitX=0.5;exitY=1;exitDx=0;exitDy=0;entryX=0.25;entryY=0;entryDx=0;entryDy=0;" edge="1" parent="1" source="tQu8rQZYgwd-GXm8KlZN-11" target="tQu8rQZYgwd-GXm8KlZN-13">
          <mxGeometry relative="1" as="geometry" />
        </mxCell>
        <mxCell id="tQu8rQZYgwd-GXm8KlZN-17" style="edgeStyle=orthogonalEdgeStyle;rounded=0;orthogonalLoop=1;jettySize=auto;html=1;exitX=0.5;exitY=1;exitDx=0;exitDy=0;entryX=0.5;entryY=0;entryDx=0;entryDy=0;" edge="1" parent="1" source="tQu8rQZYgwd-GXm8KlZN-11" target="tQu8rQZYgwd-GXm8KlZN-13">
          <mxGeometry relative="1" as="geometry" />
        </mxCell>
        <mxCell id="tQu8rQZYgwd-GXm8KlZN-18" style="edgeStyle=orthogonalEdgeStyle;rounded=0;orthogonalLoop=1;jettySize=auto;html=1;exitX=0.5;exitY=1;exitDx=0;exitDy=0;entryX=0.75;entryY=0;entryDx=0;entryDy=0;" edge="1" parent="1" source="tQu8rQZYgwd-GXm8KlZN-11" target="tQu8rQZYgwd-GXm8KlZN-13">
          <mxGeometry relative="1" as="geometry" />
        </mxCell>
        <mxCell id="tQu8rQZYgwd-GXm8KlZN-11" value="&lt;div&gt;Wiederholungen&lt;/div&gt;" style="rounded=1;whiteSpace=wrap;html=1;fontStyle=1" vertex="1" parent="1">
          <mxGeometry x="780" y="313" width="240" height="60" as="geometry" />
        </mxCell>
        <mxCell id="tQu8rQZYgwd-GXm8KlZN-20" style="edgeStyle=orthogonalEdgeStyle;rounded=0;orthogonalLoop=1;jettySize=auto;html=1;exitX=0.5;exitY=1;exitDx=0;exitDy=0;entryX=0.5;entryY=0;entryDx=0;entryDy=0;" edge="1" parent="1" source="tQu8rQZYgwd-GXm8KlZN-13" target="tQu8rQZYgwd-GXm8KlZN-14">
          <mxGeometry relative="1" as="geometry" />
        </mxCell>
        <mxCell id="tQu8rQZYgwd-GXm8KlZN-21" style="edgeStyle=orthogonalEdgeStyle;rounded=0;orthogonalLoop=1;jettySize=auto;html=1;exitX=0.5;exitY=1;exitDx=0;exitDy=0;entryX=0.75;entryY=0;entryDx=0;entryDy=0;" edge="1" parent="1" source="tQu8rQZYgwd-GXm8KlZN-13" target="tQu8rQZYgwd-GXm8KlZN-14">
          <mxGeometry relative="1" as="geometry" />
        </mxCell>
        <mxCell id="tQu8rQZYgwd-GXm8KlZN-13" value="&lt;div&gt;HRTF Variations&lt;/div&gt;&lt;div&gt;HOA/direct speakers&lt;/div&gt;" style="rounded=1;whiteSpace=wrap;html=1;fontStyle=1" vertex="1" parent="1">
          <mxGeometry x="780" y="413" width="240" height="60" as="geometry" />
        </mxCell>
        <mxCell id="tQu8rQZYgwd-GXm8KlZN-22" style="edgeStyle=orthogonalEdgeStyle;rounded=0;orthogonalLoop=1;jettySize=auto;html=1;exitX=0.5;exitY=1;exitDx=0;exitDy=0;entryX=0.25;entryY=0;entryDx=0;entryDy=0;" edge="1" parent="1" source="tQu8rQZYgwd-GXm8KlZN-14" target="tQu8rQZYgwd-GXm8KlZN-15">
          <mxGeometry relative="1" as="geometry" />
        </mxCell>
        <mxCell id="tQu8rQZYgwd-GXm8KlZN-23" style="edgeStyle=orthogonalEdgeStyle;rounded=0;orthogonalLoop=1;jettySize=auto;html=1;exitX=0.5;exitY=1;exitDx=0;exitDy=0;entryX=0.75;entryY=0;entryDx=0;entryDy=0;" edge="1" parent="1" source="tQu8rQZYgwd-GXm8KlZN-14" target="tQu8rQZYgwd-GXm8KlZN-15">
          <mxGeometry relative="1" as="geometry" />
        </mxCell>
        <mxCell id="tQu8rQZYgwd-GXm8KlZN-24" style="edgeStyle=orthogonalEdgeStyle;rounded=0;orthogonalLoop=1;jettySize=auto;html=1;exitX=0.5;exitY=1;exitDx=0;exitDy=0;" edge="1" parent="1" source="tQu8rQZYgwd-GXm8KlZN-14" target="tQu8rQZYgwd-GXm8KlZN-15">
          <mxGeometry relative="1" as="geometry" />
        </mxCell>
        <mxCell id="tQu8rQZYgwd-GXm8KlZN-14" value="HL-Levels" style="rounded=1;whiteSpace=wrap;html=1;fontStyle=1" vertex="1" parent="1">
          <mxGeometry x="780" y="513" width="240" height="60" as="geometry" />
        </mxCell>
        <mxCell id="tQu8rQZYgwd-GXm8KlZN-15" value="Positions" style="rounded=1;whiteSpace=wrap;html=1;fontStyle=1" vertex="1" parent="1">
          <mxGeometry x="780" y="613" width="240" height="60" as="geometry" />
        </mxCell>
        <mxCell id="tQu8rQZYgwd-GXm8KlZN-19" style="edgeStyle=orthogonalEdgeStyle;rounded=0;orthogonalLoop=1;jettySize=auto;html=1;exitX=0.5;exitY=1;exitDx=0;exitDy=0;entryX=0.221;entryY=0.017;entryDx=0;entryDy=0;entryPerimeter=0;" edge="1" parent="1" source="tQu8rQZYgwd-GXm8KlZN-13" target="tQu8rQZYgwd-GXm8KlZN-14">
          <mxGeometry relative="1" as="geometry" />
        </mxCell>
        <mxCell id="tQu8rQZYgwd-GXm8KlZN-26" value="&lt;h1&gt;Versuchsablauf&lt;/h1&gt;" style="text;html=1;spacing=5;spacingTop=-20;whiteSpace=wrap;overflow=hidden;rounded=0;" vertex="1" parent="1">
          <mxGeometry x="205" y="80" width="190" height="50" as="geometry" />
        </mxCell>
        <mxCell id="tQu8rQZYgwd-GXm8KlZN-27" value="&lt;h1&gt;Durchlaub Block 1&lt;/h1&gt;" style="text;html=1;spacing=5;spacingTop=-20;whiteSpace=wrap;overflow=hidden;rounded=0;" vertex="1" parent="1">
          <mxGeometry x="782.5" y="80" width="235" height="50" as="geometry" />
        </mxCell>
      </root>
    </mxGraphModel>
  </diagram>
</mxfile>
